<?xml version="1.0" encoding="UTF-8" standalone="no"?><!DOCTYPE svg PUBLIC "-//W3C//DTD SVG 1.1//EN" "http://www.w3.org/Graphics/SVG/1.1/DTD/svg11.dtd"><svg width="400" height="600" xmlns="http://www.w3.org/2000/svg"><g transform="translate(0,0)"><svg width="100" height="100" xmlns="http://www.w3.org/2000/svg"><g fill="#ff370a"><circle cx="100" cy="0" r="100" transform="rotate(270 50 50)"></circle></g></svg></g><g transform="translate(100,0)"><svg width="100" height="100" xmlns="http://www.w3.org/2000/svg"><g fill="#5733FF"><circle cx="50" cy="50" r="50" transform="rotate(90 50 50)"></circle></g></svg></g><g transform="translate(200,0)"><svg width="100" height="100" xmlns="http://www.w3.org/2000/svg"><g fill="#ff370a"><circle cx="50" cy="50" r="50" transform="rotate(90 50 50)"></circle></g></svg></g><g transform="translate(300,0)"><svg width="100" height="100" xmlns="http://www.w3.org/2000/svg"><g fill="#5733FF"><circle cx="100" cy="0" r="100" transform="rotate(270 50 50)"></circle></g></svg></g><g transform="translate(0,100)"><svg width="100" height="100" xmlns="http://www.w3.org/2000/svg"><g fill="#5733FF"><circle cx="50" cy="50" r="50" transform="rotate(0 50 50)"></circle></g></svg></g><g transform="translate(100,100)"><svg width="100" height="100" xmlns="http://www.w3.org/2000/svg"><g fill="#ff370a"><circle cx="50" cy="50" r="50" transform="rotate(0 50 50)"></circle></g></svg></g><g transform="translate(200,100)"><svg width="100" height="100" xmlns="http://www.w3.org/2000/svg"><g fill="#000000"><circle cx="100" cy="0" r="100" transform="rotate(0 50 50)"></circle></g></svg></g><g transform="translate(300,100)"><svg width="100" height="100" xmlns="http://www.w3.org/2000/svg"><g fill="#000000"><circle cx="50" cy="50" r="50" transform="rotate(270 50 50)"></circle></g></svg></g><g transform="translate(0,200)"><svg width="100" height="100" xmlns="http://www.w3.org/2000/svg"><g fill="#5733FF"><circle cx="100" cy="0" r="100" transform="rotate(0 50 50)"></circle></g></svg></g><g transform="translate(100,200)"><svg width="100" height="100" xmlns="http://www.w3.org/2000/svg"><g fill="#000000"><circle cx="100" cy="0" r="100" transform="rotate(0 50 50)"></circle></g></svg></g><g transform="translate(200,200)"><svg width="100" height="100" xmlns="http://www.w3.org/2000/svg"><g fill="#000000"><circle cx="100" cy="0" r="100" transform="rotate(180 50 50)"></circle></g></svg></g><g transform="translate(300,200)"><svg width="100" height="100" xmlns="http://www.w3.org/2000/svg"><g fill="#5733FF"><circle cx="50" cy="50" r="50" transform="rotate(270 50 50)"></circle></g></svg></g><g transform="translate(0,300)"><svg width="100" height="100" xmlns="http://www.w3.org/2000/svg"><g fill="#5733FF"><circle cx="50" cy="50" r="50" transform="rotate(180 50 50)"></circle></g></svg></g><g transform="translate(100,300)"><svg width="100" height="100" xmlns="http://www.w3.org/2000/svg"><g fill="#5733FF"><circle cx="100" cy="0" r="100" transform="rotate(270 50 50)"></circle></g></svg></g><g transform="translate(200,300)"><svg width="100" height="100" xmlns="http://www.w3.org/2000/svg"><g fill="#ff370a"><circle cx="50" cy="50" r="50" transform="rotate(90 50 50)"></circle></g></svg></g><g transform="translate(300,300)"><svg width="100" height="100" xmlns="http://www.w3.org/2000/svg"><g fill="#000000"><circle cx="100" cy="0" r="100" transform="rotate(180 50 50)"></circle></g></svg></g><g transform="translate(0,400)"><svg width="100" height="100" xmlns="http://www.w3.org/2000/svg"><g fill="#5733FF"><circle cx="100" cy="0" r="100" transform="rotate(270 50 50)"></circle></g></svg></g><g transform="translate(100,400)"><svg width="100" height="100" xmlns="http://www.w3.org/2000/svg"><g fill="#ff370a"><circle cx="100" cy="0" r="100" transform="rotate(0 50 50)"></circle></g></svg></g><g transform="translate(200,400)"><svg width="100" height="100" xmlns="http://www.w3.org/2000/svg"><g fill="#ff370a"><circle cx="100" cy="0" r="100" transform="rotate(0 50 50)"></circle></g></svg></g><g transform="translate(300,400)"><svg width="100" height="100" xmlns="http://www.w3.org/2000/svg"><g fill="#000000"><circle cx="50" cy="50" r="50" transform="rotate(90 50 50)"></circle></g></svg></g><g transform="translate(0,500)"><svg width="100" height="100" xmlns="http://www.w3.org/2000/svg"><g fill="#5733FF"><circle cx="100" cy="0" r="100" transform="rotate(90 50 50)"></circle></g></svg></g><g transform="translate(100,500)"><svg width="100" height="100" xmlns="http://www.w3.org/2000/svg"><g fill="#5733FF"><circle cx="50" cy="50" r="50" transform="rotate(270 50 50)"></circle></g></svg></g><g transform="translate(200,500)"><svg width="100" height="100" xmlns="http://www.w3.org/2000/svg"><g fill="#5733FF"><circle cx="100" cy="0" r="100" transform="rotate(270 50 50)"></circle></g></svg></g><g transform="translate(300,500)"><svg width="100" height="100" xmlns="http://www.w3.org/2000/svg"><g fill="#5733FF"><circle cx="50" cy="50" r="50" transform="rotate(270 50 50)"></circle></g></svg></g></svg>